<svg xmlns="http://www.w3.org/2000/svg" width="686" height="93"><defs><clipPath id="a"><path data-name="사각형 28287" transform="translate(617 465)" fill="#fff" stroke="#707070" d="M0 0h686v93H0z"/></clipPath></defs><g data-name="마스크 그룹 33761" transform="translate(-617 -465)" clip-path="url(#a)"><g data-name="그룹 41266" transform="translate(617 465.374)"><path data-name="패스 121929" d="M34.689 92.856a30.645 30.645 0 0024.149-11.154l-7.981-9.414c-4.093 4.4-9.209 7.47-15.656 7.47-11.972 0-19.749-9.926-19.749-26.4 0-16.27 8.6-26.093 20.056-26.093 5.73 0 10.13 2.66 13.916 6.344l7.982-9.619A30.888 30.888 0 0035.2 14.269c-19.135 0-35.2 14.633-35.2 39.6 0 25.275 15.554 38.987 34.689 38.987zm49.219 0c6.549 0 12.279-3.274 17.293-7.572h.307l1.126 6.14h12.279V57.963c0-16.577-7.47-25.275-22-25.275-9 0-17.191 3.377-23.945 7.572l5.423 9.926c5.321-3.07 10.437-5.423 15.758-5.423 7.061 0 9.516 4.3 9.721 9.926-23.024 2.456-32.949 8.9-32.949 21.182.001 9.72 6.754 16.985 16.987 16.985zm4.912-11.767c-4.4 0-7.572-1.944-7.572-6.447 0-5.116 4.707-8.9 18.624-10.744v11.563c-3.582 3.581-6.754 5.628-11.052 5.628zm41.442 10.335H145.2V57.246c3.274-8.288 8.7-11.256 13.2-11.256a18.06 18.06 0 015.935.921l2.661-13a16.21 16.21 0 00-6.754-1.228c-5.935 0-12.075 4.093-16.27 11.563h-.409l-1.023-10.13h-12.278zm68.252 1.433a36.147 36.147 0 0020.056-6.344l-5.116-9.209a23.619 23.619 0 01-12.893 3.991c-8.493 0-14.633-4.912-15.861-14.326H220a27.954 27.954 0 00.716-6.856c0-15.861-8.186-27.424-23.945-27.424-13.712 0-26.707 11.563-26.707 30.186.003 18.827 12.487 29.981 28.45 29.981zM184.5 57.042c1.126-8.391 6.447-12.689 12.484-12.689 7.368 0 10.847 4.912 10.847 12.689zm73.471 35.814a36.147 36.147 0 0020.056-6.344l-5.116-9.209a23.619 23.619 0 01-12.893 3.991c-8.493 0-14.633-4.912-15.861-14.326h35.3a27.951 27.951 0 00.716-6.856c0-15.861-8.186-27.424-23.945-27.424-13.712 0-26.707 11.563-26.707 30.186-.002 18.828 12.479 29.982 28.445 29.982zm-14.023-35.814c1.126-8.391 6.447-12.689 12.484-12.689 7.368 0 10.847 4.912 10.847 12.689zm48.605 34.382h14.94V57.246c3.274-8.288 8.7-11.256 13.2-11.256a18.06 18.06 0 015.935.921l2.66-13a16.21 16.21 0 00-6.754-1.228c-5.935 0-12.075 4.093-16.27 11.563h-.409l-1.023-10.13h-12.279zm45.842 0h15.145v-30.7h26.912V48.037H353.54V28.288h31.517V15.702H338.4zm58.633 0h14.94v-57.3h-14.94zm52.084 1.433a37.031 37.031 0 0012.075-2.149l-2.456-10.949a16.742 16.742 0 01-5.628 1.228c-5.116 0-7.777-3.07-7.777-9.619V45.99h14.121V34.12h-14.12V18.769h-12.586L431 34.12l-8.8.716V45.99h8.084v25.379c.001 12.892 5.216 21.487 18.829 21.487zm22-1.433h14.94v-39.4c4.3-4.2 7.265-6.447 11.972-6.447 5.628 0 8.084 3.172 8.084 11.972v33.87h15.042V55.711c0-14.428-5.321-23.024-17.7-23.024-7.777 0-13.61 4.093-18.624 9h-.409l-1.023-7.572h-12.281zm90.457 1.433a36.148 36.148 0 0020.056-6.344l-5.116-9.209a23.618 23.618 0 01-12.893 3.991c-8.493 0-14.633-4.912-15.861-14.326h35.3a27.958 27.958 0 00.716-6.856c0-15.861-8.186-27.424-23.945-27.424-13.712 0-26.707 11.563-26.707 30.186.005 18.827 12.488 29.981 28.451 29.981zm-14.017-35.815c1.126-8.391 6.447-12.689 12.484-12.689 7.368 0 10.847 4.912 10.847 12.689zm64.978 35.814c14.94 0 22.819-8.084 22.819-18.112 0-10.642-8.391-14.428-15.963-17.293-6.038-2.251-11.666-3.782-11.666-7.982 0-3.274 2.456-5.526 7.572-5.526 4.3 0 8.288 2.047 12.382 4.912l6.754-9.107c-4.809-3.581-11.154-7.061-19.544-7.061-12.893 0-21.284 7.265-21.284 17.6 0 9.516 8.391 13.916 15.656 16.679 6.037 2.354 11.972 4.3 11.972 8.6 0 3.581-2.558 6.037-8.289 6.037-5.321 0-10.233-2.251-15.349-6.242l-6.856 9.408a36.106 36.106 0 0021.795 8.087zm50.652 0c14.94 0 22.819-8.084 22.819-18.112 0-10.642-8.391-14.428-15.963-17.293-6.038-2.251-11.666-3.782-11.666-7.982 0-3.274 2.456-5.526 7.572-5.526 4.3 0 8.288 2.047 12.381 4.912l6.754-9.107c-4.809-3.581-11.154-7.061-19.544-7.061-12.893 0-21.284 7.265-21.284 17.6 0 9.516 8.391 13.916 15.656 16.679 6.037 2.354 11.972 4.3 11.972 8.6 0 3.581-2.558 6.037-8.288 6.037-5.321 0-10.233-2.251-15.349-6.242l-6.856 9.408a36.106 36.106 0 0021.795 8.087z" fill="#fff"/><ellipse data-name="타원 2825" cx="11.923" cy="8.73" rx="11.923" ry="8.73" transform="rotate(-38.7 216.302 -547.912)" fill="#3e7cf6"/></g></g></svg>