<svg xmlns="http://www.w3.org/2000/svg" xmlns:xlink="http://www.w3.org/1999/xlink" width="47" height="48" viewBox="0 0 47 48">
  <defs>
    <linearGradient id="linear-gradient" x2="1" y2="1" gradientUnits="objectBoundingBox">
      <stop offset="0" stop-color="#a7c4ff"/>
      <stop offset="0.532" stop-color="#6ab3ff"/>
      <stop offset="1" stop-color="#c76aff"/>
    </linearGradient>
  </defs>
  <g id="fitness_sec06_ico_premium" transform="translate(-0.313 0)">
    <rect id="사각형_26613" data-name="사각형 26613" width="47" height="48" transform="translate(0.313 0)" fill="none"/>
    <path id="패스_121851" data-name="패스 121851" d="M592.339,528.6c-13.72,0-22.1-6.772-22.451-7.06a2.5,2.5,0,0,1-.911-1.93V495.963a2.5,2.5,0,0,1,3.816-2.126l7.822,4.842,9.747-12.591a2.5,2.5,0,0,1,3.954,0l9.749,12.591,7.82-4.842a2.5,2.5,0,0,1,3.816,2.126v23.643a2.5,2.5,0,0,1-.911,1.93,32.183,32.183,0,0,1-9.045,4.77,2.5,2.5,0,0,1-1.676-4.711,30.548,30.548,0,0,0,6.631-3.268V500.451l-5.918,3.665a2.5,2.5,0,0,1-3.293-.6l-9.15-11.818-9.149,11.818a2.5,2.5,0,0,1-3.293.6l-5.92-3.665v17.877a28.86,28.86,0,0,0,4.263,2.321,33.941,33.941,0,0,0,6.062,2.029,35.4,35.4,0,0,0,8.037.918,2.5,2.5,0,0,1,0,5Z" transform="translate(-568.525 -482.858)" fill="url(#linear-gradient)"/>
  </g>
</svg>
