<svg xmlns="http://www.w3.org/2000/svg" width="119" height="92" viewBox="0 0 119 92">
  <g id="fitness_sec05_ico_05" transform="translate(-1412 -6497)">
    <rect id="사각형_28285" data-name="사각형 28285" width="119" height="92" transform="translate(1412 6497)" fill="none"/>
    <g id="그룹_41241" data-name="그룹 41241" transform="translate(1421.797 6498)">
      <path id="패스_121507" data-name="패스 121507" d="M5.277,4.8a.48.48,0,0,0-.48.48V67.643a.48.48,0,0,0,.48.48H27.825a.48.48,0,0,0,.48-.48V5.277a.48.48,0,0,0-.48-.48H5.277m0-4.8H27.825A5.277,5.277,0,0,1,33.1,5.277V67.643a5.277,5.277,0,0,1-5.277,5.277H5.277A5.277,5.277,0,0,1,0,67.643V5.277A5.277,5.277,0,0,1,5.277,0Z" transform="translate(32.622 0)" fill="#001d6d"/>
      <rect id="사각형_27718" data-name="사각형 27718" width="100.404" height="72.916" rx="5" transform="translate(0 14.875)" fill="#1e2660"/>
      <rect id="사각형_27719" data-name="사각형 27719" width="100.404" height="30.092" rx="5" transform="translate(0 14.875)" fill="#323b7c"/>
      <rect id="사각형_27720" data-name="사각형 27720" width="17.65" height="6.944" transform="translate(41.377 44.968)" fill="#81a8ff"/>
    </g>
  </g>
</svg>
