<svg xmlns="http://www.w3.org/2000/svg" width="119" height="92"><path data-name="사각형 28285" fill="none" d="M0 0h119v92H0z"/><g data-name="그룹 41241" transform="translate(9.797 1)"><path data-name="패스 121507" d="M37.899 4.8a.48.48 0 00-.48.48v62.363a.48.48 0 00.48.48h22.548a.48.48 0 00.48-.48V5.277a.48.48 0 00-.48-.48H37.899m0-4.8h22.548a5.277 5.277 0 015.275 5.28v62.366a5.277 5.277 0 01-5.277 5.277H37.899a5.277 5.277 0 01-5.277-5.277V5.277A5.277 5.277 0 0137.899 0z" fill="#001d6d"/><rect data-name="사각형 27718" width="100.404" height="72.916" rx="5" transform="translate(0 14.875)" fill="#1e2660"/><rect data-name="사각형 27719" width="100.404" height="30.092" rx="5" transform="translate(0 14.875)" fill="#323b7c"/><path data-name="사각형 27720" fill="#81a8ff" d="M41.377 44.968h17.65v6.944h-17.65z"/></g></svg>