<svg xmlns="http://www.w3.org/2000/svg" width="119" height="92"><path data-name="사각형 28282" fill="none" d="M0 0h119v92H0z"/><path data-name="사각형 27883" fill="#e7e7e7" d="M18 65.512h82v25H18z"/><path data-name="사각형 27884" fill="#e7e7e7" d="M18 34.512h82v24H18z"/><path data-name="사각형 27885" fill="#e7e7e7" d="M18 2.512h82v25H18z"/><path data-name="패스 121925" d="M112.681 15.495l-35.47 35.47-14.624 5.869a.7.7 0 01-.91-.91l5.87-14.622 35.47-35.471a6.833 6.833 0 019.663 0 6.833 6.833 0 01.001 9.664z" fill="#81a8ff"/><path data-name="패스 121926" d="M93.615 15.233l9.405-9.405a6.833 6.833 0 019.663 0 6.833 6.833 0 010 9.665l-9.404 9.404" fill="#323b7c"/><path d="M27.479 45.319c.3.111 3.526 4.5 3.526 4.5l5.348-6.817" fill="none" stroke="#323b7c" stroke-linecap="round" stroke-linejoin="round" stroke-width="2"/><path data-name="check" d="M27.479 13.925c.3.111 3.526 4.5 3.526 4.5l5.348-6.817m-8.874 65.317c.3.111 3.526 4.5 3.526 4.5l5.348-6.817" fill="none" stroke="#323b7c" stroke-linecap="round" stroke-linejoin="round" stroke-width="2"/></svg>