<svg xmlns="http://www.w3.org/2000/svg" xmlns:xlink="http://www.w3.org/1999/xlink" width="686" height="93" viewBox="0 0 686 93">
  <defs>
    <clipPath id="clip-path">
      <rect id="사각형_28287" data-name="사각형 28287" width="686" height="93" transform="translate(617 465)" fill="#fff" stroke="#707070" stroke-width="1"/>
    </clipPath>
  </defs>
  <g id="마스크_그룹_33761" data-name="마스크 그룹 33761" transform="translate(-617 -465)" clip-path="url(#clip-path)">
    <g id="그룹_41266" data-name="그룹 41266" transform="translate(617 465.374)">
      <path id="패스_121929" data-name="패스 121929" d="M42.789-34.513A30.645,30.645,0,0,0,66.938-45.667l-7.981-9.414c-4.093,4.4-9.209,7.47-15.656,7.47-11.972,0-19.749-9.926-19.749-26.4,0-16.27,8.6-26.093,20.056-26.093,5.73,0,10.13,2.66,13.916,6.344l7.982-9.619A30.888,30.888,0,0,0,43.3-113.1c-19.135,0-35.2,14.633-35.2,39.6C8.1-48.225,23.654-34.513,42.789-34.513Zm49.219,0c6.549,0,12.279-3.274,17.293-7.572h.307l1.126,6.14h12.279V-69.406c0-16.577-7.47-25.275-22-25.275-9,0-17.191,3.377-23.945,7.572l5.423,9.926c5.321-3.07,10.437-5.423,15.758-5.423,7.061,0,9.516,4.3,9.721,9.926-23.024,2.456-32.949,8.9-32.949,21.182C75.022-41.778,81.775-34.513,92.008-34.513ZM96.92-46.28c-4.4,0-7.572-1.944-7.572-6.447,0-5.116,4.707-8.9,18.624-10.744v11.563C104.39-48.327,101.218-46.28,96.92-46.28Zm41.442,10.335H153.3V-70.123c3.274-8.288,8.7-11.256,13.2-11.256a18.06,18.06,0,0,1,5.935.921l2.661-13a16.21,16.21,0,0,0-6.754-1.228c-5.935,0-12.075,4.093-16.27,11.563h-.409l-1.023-10.13H138.362Zm68.252,1.433a36.147,36.147,0,0,0,20.056-6.344l-5.116-9.209a23.619,23.619,0,0,1-12.893,3.991c-8.493,0-14.633-4.912-15.861-14.326h35.3a27.954,27.954,0,0,0,.716-6.856c0-15.861-8.186-27.424-23.945-27.424-13.712,0-26.707,11.563-26.707,30.186C178.167-45.667,190.651-34.513,206.614-34.513ZM192.6-70.327c1.126-8.391,6.447-12.689,12.484-12.689,7.368,0,10.847,4.912,10.847,12.689Zm73.471,35.814a36.147,36.147,0,0,0,20.056-6.344l-5.116-9.209a23.619,23.619,0,0,1-12.893,3.991c-8.493,0-14.633-4.912-15.861-14.326h35.3a27.951,27.951,0,0,0,.716-6.856c0-15.861-8.186-27.424-23.945-27.424-13.712,0-26.707,11.563-26.707,30.186C237.619-45.667,250.1-34.513,266.066-34.513ZM252.048-70.327c1.126-8.391,6.447-12.689,12.484-12.689,7.368,0,10.847,4.912,10.847,12.689Zm48.605,34.382h14.94V-70.123c3.274-8.288,8.7-11.256,13.2-11.256a18.06,18.06,0,0,1,5.935.921l2.66-13a16.21,16.21,0,0,0-6.754-1.228c-5.935,0-12.075,4.093-16.27,11.563h-.409l-1.023-10.13H300.653Zm45.842,0H361.64v-30.7h26.912V-79.332H361.64V-99.081h31.517v-12.586H346.5Zm58.633,0h14.94v-57.3h-14.94Zm52.084,1.433a37.031,37.031,0,0,0,12.075-2.149l-2.456-10.949a16.742,16.742,0,0,1-5.628,1.228c-5.116,0-7.777-3.07-7.777-9.619V-81.379h14.121v-11.87H453.427V-108.6H440.841L439.1-93.249l-8.8.716v11.154h8.084V-56C438.385-43.108,443.6-34.513,457.213-34.513Zm22-1.433h14.94v-39.4c4.3-4.2,7.265-6.447,11.972-6.447,5.628,0,8.084,3.172,8.084,11.972v33.87h15.042V-71.658c0-14.428-5.321-23.024-17.7-23.024-7.777,0-13.61,4.093-18.624,9h-.409l-1.023-7.572H479.213Zm90.457,1.433a36.148,36.148,0,0,0,20.056-6.344l-5.116-9.209a23.618,23.618,0,0,1-12.893,3.991c-8.493,0-14.633-4.912-15.861-14.326h35.3a27.958,27.958,0,0,0,.716-6.856c0-15.861-8.186-27.424-23.945-27.424-13.712,0-26.707,11.563-26.707,30.186C541.224-45.667,553.707-34.513,569.67-34.513ZM555.652-70.327c1.126-8.391,6.447-12.689,12.484-12.689,7.368,0,10.847,4.912,10.847,12.689Zm64.978,35.814c14.94,0,22.819-8.084,22.819-18.112,0-10.642-8.391-14.428-15.963-17.293C621.448-72.169,615.82-73.7,615.82-77.9c0-3.274,2.456-5.526,7.572-5.526,4.3,0,8.288,2.047,12.382,4.912l6.754-9.107c-4.809-3.581-11.154-7.061-19.544-7.061-12.893,0-21.284,7.265-21.284,17.6,0,9.516,8.391,13.916,15.656,16.679,6.037,2.354,11.972,4.3,11.972,8.6,0,3.581-2.558,6.037-8.289,6.037-5.321,0-10.233-2.251-15.349-6.242L598.834-42.6A36.106,36.106,0,0,0,620.629-34.513Zm50.652,0c14.94,0,22.819-8.084,22.819-18.112,0-10.642-8.391-14.428-15.963-17.293C672.1-72.169,666.472-73.7,666.472-77.9c0-3.274,2.456-5.526,7.572-5.526,4.3,0,8.288,2.047,12.381,4.912l6.754-9.107c-4.809-3.581-11.154-7.061-19.544-7.061-12.893,0-21.284,7.265-21.284,17.6,0,9.516,8.391,13.916,15.656,16.679,6.037,2.354,11.972,4.3,11.972,8.6,0,3.581-2.558,6.037-8.288,6.037-5.321,0-10.233-2.251-15.349-6.242L649.486-42.6A36.106,36.106,0,0,0,671.281-34.513Z" transform="translate(-8.1 127.369)" fill="#fff"/>
      <ellipse id="타원_2825" data-name="타원 2825" cx="11.923" cy="8.73" rx="11.923" ry="8.73" transform="matrix(0.78, -0.625, 0.625, 0.78, 389.926, 14.915)" fill="#3e7cf6"/>
    </g>
  </g>
</svg>
