<svg xmlns="http://www.w3.org/2000/svg" width="119" height="92"><path data-name="사각형 28284" fill="none" d="M0 0h119v92H0z"/><g data-name="그룹 41242" transform="translate(-1158 -6557.941)"><path data-name="사각형 27886" fill="#e7e7e7" d="M1186 6573.941h61v76h-61z"/><path data-name="패스 121928" d="M1216.533 6582h6.13l10.144-23.571h-6.13z" fill="#323b7c"/><path data-name="사각형 27887" fill="#81a8ff" d="M1186 6573.941h61v16h-61z"/><path data-name="패스 121927" d="M1216.768 6582h-6.13l-10.144-23.571h6.13z" fill="#323b7c"/><circle data-name="타원 3191" cx="7.867" cy="7.867" transform="translate(1208.901 6601.412)" fill="#323b7c" r="7.867"/><path data-name="사각형 27888" d="M1212.157 6619.393h9.221a10 10 0 0110 10v2.734a3 3 0 01-3 3h-23.221a3 3 0 01-3-3v-2.734a10 10 0 0110-10z" fill="#323b7c"/></g></svg>