<svg xmlns="http://www.w3.org/2000/svg" width="92" height="92"><defs><clipPath id="a"><path transform="translate(212 2331)" fill="#fff" stroke="#707070" d="M0 0h92v92H0z"/></clipPath></defs><g transform="translate(-212 -2331)" clip-path="url(#a)"><g data-name="그룹 41851" stroke="#3575f6" stroke-miterlimit="10"><path data-name="사각형 27543" fill="#fff" stroke-width="3" d="M236.561 2358.428h10.178v49.495h-10.178z"/><path data-name="사각형 27544" fill="#fff" stroke-width="3" d="M239.349 2351.039h7.389v7.389h-7.389z"/><path data-name="선 123" fill="none" stroke-linecap="round" stroke-width="2" opacity=".7" d="M241.65 2362.89v45.033"/><path data-name="선 124" fill="none" stroke-width="3" d="M224.71 2407.923h65.947"/><path data-name="사각형 27545" d="M246.739 2346.077h24.044a10 10 0 0110 10v51.846h0-34.044 0v-61.846h0z" fill="#fff" stroke-width="3"/><g data-name="그룹 40789" opacity=".2" fill="none" stroke-width="2"><path data-name="패스 121412" d="M253.43 2353.965h20.748a6.6 6.6 0 016.6 6.607"/><path data-name="패스 121413" d="M253.43 2362.89h20.748a6.6 6.6 0 016.6 6.6"/><path data-name="패스 121414" d="M253.43 2371.814h20.748c3.647 0 6.6 2.622 6.6 5.854"/><path data-name="패스 121415" d="M253.43 2380.737h20.748c3.647 0 6.6 2 6.6 4.459"/><path data-name="패스 121416" d="M253.43 2389.658h20.748c3.647 0 6.6 1.478 6.6 3.3"/><path data-name="패스 121417" d="M253.43 2398.582h20.748c3.647 0 6.6 1.748 6.6 3.9"/></g></g></g></svg>