<svg xmlns="http://www.w3.org/2000/svg" width="92" height="92"><defs><clipPath id="a"><path transform="translate(56 2195)" fill="#fff" stroke="#707070" d="M0 0h92v92H0z"/></clipPath></defs><g transform="translate(-56 -2195)" clip-path="url(#a)"><g data-name="그룹 41850" fill="none" stroke="#3575f6" stroke-linecap="round" stroke-miterlimit="10"><g data-name="그룹 40785" opacity=".2" stroke-width="2"><path data-name="선 105" d="M96.777 2220.155h11.195"/><path data-name="선 106" d="M96.777 2223.97h11.195"/><path data-name="선 107" d="M82.556 2251.649h5.597"/><path data-name="선 108" d="M82.556 2256.677h5.597"/><path data-name="선 109" d="M82.556 2261.705h5.597"/><path data-name="선 110" d="M82.556 2266.733h5.597"/><path data-name="선 111" d="M82.556 2271.762h5.597"/><path data-name="선 112" d="M82.556 2276.79h5.597"/><path data-name="선 113" d="M116.226 2251.649h5.597"/><path data-name="선 114" d="M116.226 2256.677h5.597"/><path data-name="선 115" d="M116.226 2261.705h5.597"/><path data-name="선 116" d="M116.226 2266.733h5.597"/><path data-name="선 117" d="M116.226 2271.762h5.597"/><path data-name="선 118" d="M116.226 2276.79h5.597"/></g><g data-name="그룹 40787" opacity=".5" stroke-width="1.5"><path data-name="선 104" d="M96.384 2244.831v37.014"/><path data-name="선 119" d="M102.189 2234.213v47.632"/><path data-name="선 121" d="M107.973 2244.831v37.014"/></g><g data-name="그룹 40786" stroke-width="3"><path data-name="사각형 27541" d="M78.656 2246.049h9.497v35.796h-9.497z"/><path data-name="패스 121409" d="M93.464 2232.494v-17.045h17.825v17.046"/><path data-name="패스 121410" d="M97.813 2215.448v-7.468h9.125v7.468"/><path data-name="선 120" d="M102.189 2200.155v7.825"/><path data-name="사각형 27542" d="M116.226 2246.049h9.497v35.796h-9.497z"/><path data-name="패스 121411" d="M106.994 2237.69v-4.868a4.836 4.836 0 10-9.673 0v4.868h-9.169v44.157h28.074v-44.157z"/><path data-name="선 122" d="M63.43 2281.845h76.787"/></g></g></g></svg>