<svg xmlns="http://www.w3.org/2000/svg" width="48" height="48"><path data-name="사각형 25247" fill="none" d="M0 0h48v48H0z"/><path data-name="합치기 47" d="M9.901 34.494l-4.845-.002a2 2 0 01-2-2V15.318a2 2 0 012-2h4.977a4.205 4.205 0 117.687-2.329 4.247 4.247 0 01-.69 2.329h4.971a2 2 0 012 2v4.919a4.144 4.144 0 00-2.094-.567 4.235 4.235 0 000 8.47 4.148 4.148 0 002.094-.566v4.919a2 2 0 01-2 2h-4.845a4.2 4.2 0 10-7.814-2.119 4.272 4.272 0 00.561 2.118z" fill="#3f75e5"/><path data-name="합치기 46" d="M45.225 32.681a2 2 0 01-2 2h-4.764a4.189 4.189 0 11-7 0h-5.179a2 2 0 01-2-2v-5.305a3.933 3.933 0 01-2.3.742 4.023 4.023 0 010-8.046 3.932 3.932 0 012.3.743v-5.307a2 2 0 012-2h16.943a2 2 0 012 2z" fill="#d3daec"/></svg>