<svg xmlns="http://www.w3.org/2000/svg" width="116" height="120"><defs><clipPath id="a"><path data-name="사각형 28333" transform="translate(1310 1945)" fill="#fff" stroke="#707070" d="M0 0h116v120H0z"/></clipPath></defs><g transform="translate(-1310 -1945)" clip-path="url(#a)"><g data-name="그룹 40788" stroke="#9ab1e0" stroke-miterlimit="10"><path data-name="사각형 27543" fill="#fff" stroke-width="3" d="M1344.112 1998.413h11.51v55.972h-11.51z"/><path data-name="사각형 27544" fill="#fff" stroke-width="3" d="M1347.265 1990.056h8.356v8.356h-8.356z"/><path data-name="선 123" fill="none" stroke-linecap="round" stroke-width="2" opacity=".7" d="M1349.866 2003.458v50.927"/><path data-name="선 124" fill="none" stroke-width="3" d="M1330.71 2054.385h74.577"/><path data-name="사각형 27545" d="M1355.622 1984.445h28.5a10 10 0 0110 10v59.939h0-38.5 0v-69.939h0z" fill="#fff" stroke-width="3"/><g data-name="그룹 40789" opacity=".2" fill="none" stroke-width="2"><path data-name="패스 121412" d="M1363.189 1993.365h23.463a7.469 7.469 0 017.468 7.472"/><path data-name="패스 121413" d="M1363.189 2003.458h23.463a7.468 7.468 0 017.468 7.468"/><path data-name="패스 121414" d="M1363.189 2013.549h23.463c4.125 0 7.468 2.965 7.468 6.621"/><path data-name="패스 121415" d="M1363.189 2023.641h23.463c4.125 0 7.468 2.258 7.468 5.042"/><path data-name="패스 121416" d="M1363.189 2033.729h23.463c4.125 0 7.468 1.672 7.468 3.736"/><path data-name="패스 121417" d="M1363.189 2043.821h23.463c4.125 0 7.468 1.977 7.468 4.416"/></g></g></g></svg>