<svg xmlns="http://www.w3.org/2000/svg" width="116" height="120"><defs><clipPath id="a"><path data-name="사각형 28332" transform="translate(1015 1945)" fill="#fff" stroke="#707070" d="M0 0h116v120H0z"/></clipPath></defs><g transform="translate(-1015 -1945)" clip-path="url(#a)"><g data-name="그룹 40784" fill="none" stroke="#9ab1e0" stroke-linecap="round" stroke-miterlimit="10"><g data-name="그룹 40785" opacity=".2" stroke-width="2"><path data-name="선 105" d="M1065.879 1979.556h13.579"/><path data-name="선 106" d="M1065.879 1984.183h13.579"/><path data-name="선 107" d="M1048.629 2017.757h6.789"/><path data-name="선 108" d="M1048.629 2023.856h6.789"/><path data-name="선 109" d="M1048.629 2029.955h6.789"/><path data-name="선 110" d="M1048.629 2036.054h6.789"/><path data-name="선 111" d="M1048.629 2042.152h6.789"/><path data-name="선 112" d="M1048.629 2048.252h6.789"/><path data-name="선 113" d="M1089.469 2017.757h6.789"/><path data-name="선 114" d="M1089.469 2023.856h6.789"/><path data-name="선 115" d="M1089.469 2029.955h6.789"/><path data-name="선 116" d="M1089.469 2036.054h6.789"/><path data-name="선 117" d="M1089.469 2042.152h6.789"/><path data-name="선 118" d="M1089.469 2048.252h6.789"/></g><g data-name="그룹 40787" opacity=".5" stroke-width="1.5"><path data-name="선 104" d="M1065.402 2009.487v44.896"/><path data-name="선 119" d="M1072.443 1996.607v57.775"/><path data-name="선 121" d="M1079.459 2009.487v44.896"/></g><g data-name="그룹 40786" stroke-width="3"><path data-name="사각형 27541" d="M1043.898 2010.963h11.519v43.419h-11.519z"/><path data-name="패스 121409" d="M1061.86 1994.521v-20.675h21.62v20.676"/><path data-name="패스 121410" d="M1067.134 1973.846v-9.058h11.064v9.058"/><path data-name="선 120" d="M1072.443 1955.296v9.492"/><path data-name="사각형 27542" d="M1089.469 2010.963h11.519v43.419h-11.519z"/><path data-name="패스 121411" d="M1078.271 2000.824v-5.9a5.867 5.867 0 10-11.733 0v5.9h-11.122v53.56h34.052v-53.56z"/><path data-name="선 122" d="M1025.43 2054.383h93.14"/></g></g></g></svg>