<svg xmlns="http://www.w3.org/2000/svg" xmlns:xlink="http://www.w3.org/1999/xlink" width="1144" height="652"><defs><linearGradient id="c" x1=".5" x2=".5" y2="1" gradientUnits="objectBoundingBox"><stop offset="0" stop-color="#c3deff"/><stop offset="1" stop-color="#fff7f9"/></linearGradient><linearGradient id="d" x1=".5" x2=".5" y2=".966" gradientUnits="objectBoundingBox"><stop offset="0" stop-color="#c3deff"/><stop offset=".129" stop-color="#c4deff"/><stop offset="1" stop-color="#fcf0f0"/></linearGradient><linearGradient id="e" x1=".263" y1=".063" x2=".5" y2=".874" gradientUnits="objectBoundingBox"><stop offset="0" stop-color="#87b8f8"/><stop offset="1" stop-color="#ffebf3"/></linearGradient><linearGradient id="a" x1=".143" y1=".5" x2=".886" y2=".5" gradientUnits="objectBoundingBox"><stop offset="0" stop-color="#53628e"/><stop offset="1" stop-color="#5087d5"/></linearGradient><linearGradient id="f" x1=".5" x2=".966" gradientUnits="objectBoundingBox"><stop offset="0" stop-color="#526391"/><stop offset="1" stop-color="#5087d5"/></linearGradient><linearGradient id="g" x1=".5" y1=".433" x2=".681" y2="1.085" xlink:href="#a"/><linearGradient id="h" x1=".5" x2=".5" y2="1" gradientUnits="objectBoundingBox"><stop offset="0" stop-color="#a2c6ff"/><stop offset="1" stop-color="#ffdbe9"/></linearGradient><clipPath id="b"><rect data-name="사각형 27083" width="1144" height="652" rx="24" transform="translate(388 1379)" fill="#f4f5f8"/></clipPath></defs><g data-name="마스크 그룹 33518" clip-path="url(#b)" fill="none" transform="translate(-388 -1379)"><rect data-name="사각형 26672" width="1144" height="652" rx="24" transform="translate(388 1379)" opacity=".743"/><path opacity=".075" d="M388 1379h1144v652H388z"/></g><g data-name="그룹 39649" transform="translate(-388 -1379)"><circle data-name="타원 2973" cx="201" cy="201" r="201" transform="translate(759 1439)" opacity=".421" fill="url(#c)"/><circle data-name="타원 2970" cx="170" cy="170" r="170" transform="translate(790 1470)" fill="url(#d)"/><circle data-name="타원 2971" cx="115" cy="115" r="115" transform="translate(463 1525)" fill="#fff"/><circle data-name="타원 2972" cx="115" cy="115" r="115" transform="translate(1227 1525)" fill="#fff"/><path data-name="선 72" fill="none" stroke="#3575f6" d="M693 1639.5h97"/><path data-name="선 73" fill="none" stroke="#3575f6" d="M1130 1639.5h97"/><rect data-name="사각형 27068" width="6" height="6" rx="3" transform="translate(690 1637)" fill="#000939"/><rect data-name="사각형 27071" width="6" height="6" rx="3" transform="translate(1224 1637)" fill="#000939"/><rect data-name="사각형 27069" width="10" height="10" rx="5" transform="translate(785 1635)" fill="#3575f6"/><rect data-name="사각형 27070" width="10" height="10" rx="5" transform="translate(1125 1635)" fill="#3575f6"/><ellipse data-name="타원 2974" cx="235" cy="67" rx="235" ry="67" transform="translate(725 1728)" fill="#fff"/><text data-name="5개 직무 실무형" transform="translate(960 1806)" fill="#2352b1" font-size="20" font-family="NotoSansCJKkr-Medium, Noto Sans CJK KR" font-weight="500" letter-spacing="-.025em"><tspan x="-63.4" y="0">5개 직무 실무형</tspan></text><text data-name="전문 역량을 보유한" transform="translate(578 1806)" fill="#2352b1" font-size="20" font-family="NotoSansCJKkr-Medium, Noto Sans CJK KR" font-weight="500" letter-spacing="-.025em"><tspan x="-75.85" y="0">전문 역량을 보유한</tspan></text><text data-name="전문 역량을 필요로 하는" transform="translate(1342 1806)" fill="#2352b1" font-size="20" font-family="NotoSansCJKkr-Medium, Noto Sans CJK KR" font-weight="500" letter-spacing="-.025em"><tspan x="-95.75" y="0">전문 역량을 필요로 하는</tspan></text><text data-name="맞춤교육과 취업멘토링" transform="translate(850 1840)" fill="#141618" font-size="24" font-family="NotoSansCJKkr-Bold, Noto Sans CJK KR" font-weight="700" letter-spacing="-.025em"><tspan x="0" y="0">맞춤교육과 취업멘토링</tspan></text><text data-name="중장년 4050" transform="translate(578 1840)" fill="#141618" font-size="24" font-family="NotoSansCJKkr-Bold, Noto Sans CJK KR" font-weight="700" letter-spacing="-.025em"><tspan x="-62.016" y="0">중장년 4050</tspan></text><text data-name="중소기업 / 스타트업" transform="translate(1342 1840)" fill="#141618" font-size="24" font-family="NotoSansCJKkr-Bold, Noto Sans CJK KR" font-weight="700" letter-spacing="-.025em"><tspan x="-95.424" y="0">중소기업 / 스타트업</tspan></text><path data-name="합치기 27" d="M-4043 6256v-13a48.549 48.549 0 01-32-45.5c0-26.787 21.938-48.5 49-48.5s49 21.713 49 48.5a48.544 48.544 0 01-32 45.5v13z" transform="translate(4604 -4579)" fill="url(#e)"/><path data-name="사각형 27076" transform="translate(561 1678)" fill="url(#a)" d="M0 0h34v11H0z"/><path data-name="사각형 27079" transform="translate(561 1690)" fill="url(#a)" d="M0 0h34v11H0z"/><path data-name="사각형 27078" d="M0 0h26a12 12 0 01-12 12h-2A12 12 0 010 0z" transform="translate(565 1702)" fill="url(#f)"/><path data-name="패스 120561" d="M549.803 1616.258s-.743 11.24 7.2 17.671 15.68 3.914 15.68 3.914 3.056-7.146-5.598-15.293-17.282-6.292-17.282-6.292z" fill="#fff"/><path data-name="패스 120562" d="M610.776 1602.628s-18.45-.26-28.295 13.28-5.07 25.988-5.07 25.988 11.95 4.389 24.545-10.46 8.82-28.808 8.82-28.808z" fill="#fff"/><g data-name="그룹 39648"><path data-name="패스 120054" d="M5033.955 393.776l-25.687 10.569L4972.206 427s-2.277 33.592 0 33.592h61.749z" transform="translate(-3631.147 1203.388)" fill="url(#g)"/><path data-name="합치기 28" d="M55.555 88.178L16.474 49.1H0V0h56.967v.946L57.911 0l42.91 42.91a6 6 0 010 8.485L64.04 88.178a6 6 0 01-8.485 0z" transform="translate(1281.192 1605.564)" fill="url(#h)"/><path data-name="패스 120056" d="M1377.9 1607.322a187.369 187.369 0 00-23.047-8.788c-10.473-2.96-22.466 4.376-30.938 8.788s-6.317 10.764-3.524 15.545 5.417 5.251 13.544 1.273 13.093-11.459 20.919-3.1 14.887 14.791 14.887 14.791l14.186-19.551z" fill="#53628e"/></g><text data-name="런애잡4050은 맞춤형 실무역량 강화교육과 취업멘토링을 제공합니다." transform="translate(960 1909)" fill="#7c828b" font-size="20" font-family="NotoSansCJKkr-Regular, Noto Sans CJK KR" letter-spacing="-.025em"><tspan x="-57.25" y="0">런애잡4050은</tspan><tspan x="-111.63" y="28">맞춤형 실무역량 강화교육과</tspan><tspan x="-103.22" y="56">취업멘토링을 제공합니다.</tspan></text><text data-name="중소기업과 스타트업은 전문성 및 노하우를 보유한 인재를 확보합니다." transform="translate(1342 1909)" fill="#7c828b" font-size="20" font-family="NotoSansCJKkr-Regular, Noto Sans CJK KR" letter-spacing="-.025em"><tspan x="-91.74" y="0">중소기업과 스타트업은</tspan><tspan x="-104.67" y="28">전문성 및 노하우를 보유한</tspan><tspan x="-76.37" y="56">인재를 확보합니다.</tspan></text><text data-name="중장년은 전문성 및 노하우 활용의 기회를 얻습니다." transform="translate(578 1909)" fill="#7c828b" font-size="20" font-family="NotoSansCJKkr-Regular, Noto Sans CJK KR" letter-spacing="-.025em"><tspan x="-36.05" y="0">중장년은</tspan><tspan x="-95.72" y="28">전문성 및 노하우 활용의</tspan><tspan x="-67.42" y="56">기회를 얻습니다.</tspan></text><path data-name="사각형 27080" fill="#d8dde2" d="M556 1868h44v2h-44z"/><path data-name="사각형 27081" fill="#d8dde2" d="M938 1868h44v2h-44z"/><path data-name="사각형 27082" fill="#d8dde2" d="M1320 1868h44v2h-44z"/><g data-name="그룹 39676"><g data-name="그룹 39671" fill="#606060"><path data-name="패스 120617" d="M888.179 1694.716v-1.365h12v1.365h-5.227v1.234a7.877 7.877 0 013.553.734 2.033 2.033 0 010 3.583 9.169 9.169 0 01-4.3.734 9.276 9.276 0 01-4.317-.734 2.033 2.033 0 010-3.583 7.891 7.891 0 013.495-.734v-1.234zm11.129-5.9h-4.346c.191 1.322 2.423 2.056 4.478 2.217v1.351c-2.129-.147-4.214-.837-5.271-1.982a8.287 8.287 0 01-5.3 1.982v-1.351c2.056-.132 4.287-.9 4.479-2.217h-4.288v-1.35h10.248zm-8.9 9.662a.834.834 0 00.456.72 7.67 7.67 0 003.332.47 7.554 7.554 0 003.318-.47.821.821 0 00.47-.72.837.837 0 00-.47-.719 7.552 7.552 0 00-3.318-.47 7.668 7.668 0 00-3.332.47.851.851 0 00-.454.716z"/><path data-name="패스 120618" d="M901.95 1688.842v-1.379h6.886v1.379h-2.643v.5a3.413 3.413 0 002.878 3.7v1.41a5.315 5.315 0 01-3.643-2.247 5.5 5.5 0 01-3.714 2.423v-1.424c1.7-.367 2.878-1.556 2.878-3.861v-.5zm.588 9.251a2.283 2.283 0 01.984-1.879 9.62 9.62 0 018.355 0 2.3 2.3 0 010 3.773 9.755 9.755 0 01-8.355 0 2.289 2.289 0 01-.984-1.895zm1.6 0a1.08 1.08 0 00.543.91 5.878 5.878 0 003.025.557 6.041 6.041 0 003.039-.557 1.063 1.063 0 000-1.821 6.2 6.2 0 00-3.039-.558 6.034 6.034 0 00-3.025.558 1.081 1.081 0 00-.543.91zm8.4-10.791v2.995h1.937v1.4h-1.937v3.2h-1.6v-7.591z"/><path data-name="패스 120619" d="M921.096 1694.906h-5.462v-7.517h1.588v6.123h3.95a7.249 7.249 0 002.334-.279v1.321a6.667 6.667 0 01-2.41.352zm5.536 5.77h-10.19v-4.522h1.6v3.142h8.589zm-5.536-8.34v-1.351h3.7v-1.1h-3.7v-1.365h3.7v-1.218h1.6v9.323h-1.6v-4.283z"/><path data-name="패스 120620" d="M932.767 1693.6c0-2.408.235-4.214 1.087-5.256a2.912 2.912 0 012.349-1.042 2.943 2.943 0 012.364 1.042c.852 1.043 1.086 2.848 1.086 5.256s-.234 4.214-1.086 5.256a2.92 2.92 0 01-2.364 1.013 2.889 2.889 0 01-2.349-1.013c-.852-1.043-1.087-2.848-1.087-5.256zm5.3 0c0-2.114-.147-3.656-.7-4.361a1.376 1.376 0 00-1.16-.558 1.414 1.414 0 00-1.16.558c-.528.7-.69 2.246-.69 4.361s.162 3.656.69 4.376a1.473 1.473 0 001.16.528 1.432 1.432 0 001.16-.528c.554-.721.701-2.262.701-4.376zm5.491-6.3v13.317h-1.6v-13.316z"/><path data-name="패스 120621" d="M948.022 1693.712h-1.821v-1.953h1.821z"/><path data-name="패스 120622" d="M950.268 1688.842v-1.379h6.871v1.379h-2.643v1.19a3.424 3.424 0 002.893 3.7v1.41a5.319 5.319 0 01-3.656-2.246 5.4 5.4 0 01-3.7 2.407v-1.409a3.533 3.533 0 002.878-3.862v-1.19zm11 11.835h-10.19v-4.522h1.6v3.142h8.59zm-.235-4.053h-1.6v-4.845h-2.746v-1.366h2.746v-3.112h1.6z"/><path data-name="패스 120623" d="M963.775 1688.842v-1.379h6.872v1.379h-2.643v.661a3.424 3.424 0 002.893 3.7v1.409a5.315 5.315 0 01-3.656-2.246 5.512 5.512 0 01-3.7 2.422v-1.438a3.517 3.517 0 002.878-3.847v-.661zm9.162 12v-3.583h-8.516v-1.395h10.116v4.978zm1.6-5.9h-1.6v-7.635h1.6z"/><path data-name="패스 120624" d="M980.615 1700.031v-1.38h11.82v1.38zm8.957-6.2h2.407v1.409H981.07v-1.409h1.97v-4.89h-1.733v-1.409h10.433v1.409h-1.747v2.261a6.9 6.9 0 01-.421 2.633zm-4.919-4.89v4.89h3.377a6.757 6.757 0 00.367-2.481v-2.409z"/><path data-name="패스 120625" d="M996.412 1692.455v2.173h9v1.38h-4.551v2.643h5.08v1.38h-11.819v-1.38h5.153v-2.643h-4.464v-4.933h8.839v-2.129h-8.839v-1.409h10.44v4.919z"/><path data-name="패스 120626" d="M1007.848 1688.842v-1.379h5.506v1.379h-1.982v1.219c0 2.056.792 2.848 2.173 3.245v1.409a4.51 4.51 0 01-2.922-1.82 4.759 4.759 0 01-2.965 1.982v-1.41c1.381-.4 2.143-1.321 2.143-3.436v-1.189zm9.5 12v-3.583h-8.648v-1.395h10.234v4.978zm-2.775-10.616v-2.834h1.5v7.517h-1.5v-3.318h-1.762v-1.365zm2.819 4.772v-7.693h1.542v7.693z"/><path data-name="패스 120627" d="M1021.137 1700.031v-1.38h11.82v1.38zm11.129-11.085h-8.839v2.2h8.692v1.4h-8.692v2.261h9v1.38h-10.6v-8.648h10.44z"/></g><g data-name="그룹 39675"><g data-name="그룹 39672" fill="#450063" fill-rule="evenodd"><path data-name="패스 120628" d="M906.753 1629.997h11.391v30.436h5.162v8.722h-5.162v7.3h-9.968v-7.3h-20.467v-8.188zm-8.362 30.436h9.789v-16.2z"/><path data-name="패스 120629" d="M959.107 1661.666c0 11.474-7.631 16.05-17.044 16.05s-17.045-4.486-17.045-16.05v-16.717c0-11.474 7.631-16.05 17.045-16.05s17.044 4.486 17.044 16.05zm-11.756 5.336c.4-.4 1.6-1.637 1.6-5.756v-15.877c0-3.622-.532-7.486-6.891-7.486a7.346 7.346 0 00-5.289 1.73c-.4.4-1.6 1.638-1.6 5.756v15.876c0 3.622.533 7.486 6.89 7.486a7.347 7.347 0 005.291-1.729z"/><path data-name="패스 120630" d="M973.806 1638.896h20.291v-8.9h-30.436v25.452l9.612.712c.3-1.186 2.171-2.94 5.792-2.94 5.827 0 6.528 3.941 6.528 7.563v.463c0 4.119-1.1 5.351-1.467 5.756a6.391 6.391 0 01-4.847 1.73c-5.792 0-5.721-3.117-6.005-6.341l-10.144.712c.6 10.467 7.559 14.614 16.15 14.614 8.986 0 16.271-4.576 16.271-16.05v-1.125c0-12.978-7.285-16.05-16.271-16.05a15.934 15.934 0 00-5.472.97v-6.564z"/><path data-name="패스 120631" d="M1033.694 1661.666c0 11.474-7.631 16.05-17.044 16.05s-17.045-4.486-17.045-16.05v-16.717c0-11.474 7.632-16.05 17.045-16.05s17.044 4.486 17.044 16.05zm-11.756 5.336c.4-.4 1.6-1.637 1.6-5.756v-15.877c0-3.622-.532-7.486-6.891-7.486a7.347 7.347 0 00-5.289 1.73c-.4.4-1.6 1.638-1.6 5.756v15.876c0 3.622.533 7.486 6.89 7.486a7.347 7.347 0 005.291-1.729z"/></g><g data-name="그룹 39674"><path data-name="패스 120632" d="M919.962 1620.816a2.205 2.205 0 01-2.2-2.2v-7.97a2.204 2.204 0 014.409 0v7.97a2.205 2.205 0 01-2.209 2.2z" fill="#0055fe"/><g data-name="그룹 39673"><path data-name="패스 120633" d="M1003.339 1595.084a2.2 2.2 0 01-2.2-2.2v-17.612a5.612 5.612 0 1111.223 0v4.929a1.204 1.204 0 002.407 0v-10.026a5.612 5.612 0 1111.223 0v3.919a2.204 2.204 0 11-4.409 0v-3.919a1.202 1.202 0 00-2.405 0v10.026a5.613 5.613 0 01-11.225 0v-4.929a1.202 1.202 0 10-2.405 0v17.605a2.2 2.2 0 01-2.209 2.207z" fill="#e56c16"/></g><path data-name="패스 120634" d="M1003.338 1603.132a2.205 2.205 0 01-2.2-2.2v-19.133a2.23 2.23 0 012.214-2.2 2.207 2.207 0 012.2 2.214v19.116a2.2 2.2 0 01-2.214 2.203z" fill="#e56c16"/><path data-name="패스 120635" d="M928.78 1606.154h-10.56a6.381 6.381 0 010-12.761h4.052a1.971 1.971 0 000-3.943h-7.628a2.204 2.204 0 110-4.409h7.628a6.38 6.38 0 110 12.76h-4.052a1.972 1.972 0 000 3.944h10.56a2.204 2.204 0 110 4.409z" fill="#0055fe"/><path data-name="패스 120636" d="M937.943 1597.479h-6.921a2.204 2.204 0 110-4.409h6.921a2.204 2.204 0 010 4.409z" fill="#0055fe"/><path data-name="패스 120637" d="M937.939 1610.948a2.206 2.206 0 01-2.2-2.2v-21.922a2.204 2.204 0 014.409 0v21.915a2.205 2.205 0 01-2.209 2.207z" fill="#0055fe"/><path data-name="패스 120638" d="M971.958 1597.09h-7.619a2.204 2.204 0 010-4.409h7.619a2.204 2.204 0 010 4.409z" fill="#0055fe"/><path data-name="패스 120639" d="M971.954 1610.177a2.205 2.205 0 01-2.2-2.2v-21.151a2.204 2.204 0 114.409 0v21.146a2.205 2.205 0 01-2.209 2.205z" fill="#2552be"/><path data-name="패스 120640" d="M1010.262 1595.648h-6.924a2.204 2.204 0 110-4.409h6.924a2.204 2.204 0 110 4.409z" fill="#e56c16"/><path data-name="패스 120641" d="M964.301 1609.869a2.205 2.205 0 01-2.2-2.2v-20.843a2.204 2.204 0 114.409 0v20.838a2.2 2.2 0 01-2.209 2.205z" fill="#0055fe"/><path data-name="패스 120642" d="M938.527 1620.816h-18.565a2.204 2.204 0 110-4.409h18.565a2.204 2.204 0 010 4.409z" fill="#0055fe"/><path data-name="패스 120643" d="M953.34 1620.816a2.2 2.2 0 01-2.2-2.2v-9.4a2.204 2.204 0 114.409 0v9.4a2.205 2.205 0 01-2.209 2.2z" fill="#0055fe"/><path data-name="패스 120644" d="M972.51 1620.816h-19.17a2.204 2.204 0 110-4.409h19.169a2.204 2.204 0 010 4.409z" fill="#0055fe"/><path data-name="패스 120645" d="M985.813 1621.402a2.2 2.2 0 01-2.2-2.2v-11.936a2.204 2.204 0 014.409 0v11.927a2.2 2.2 0 01-2.209 2.209z" fill="#e56c16"/><path data-name="패스 120646" d="M1003.345 1621.402a2.2 2.2 0 01-2.2-2.2v-11.936a2.204 2.204 0 014.409 0v11.927a2.2 2.2 0 01-2.209 2.209z" fill="#e56c16"/><path data-name="패스 120647" d="M1003.345 1621.402h-17.532a2.204 2.204 0 110-4.409h17.531a2.204 2.204 0 110 4.409z" fill="#e56c16"/><path data-name="패스 120648" d="M1003.345 1614.166h-17.532a2.204 2.204 0 110-4.409h17.531a2.204 2.204 0 110 4.409z" fill="#e56c16"/><path data-name="패스 120649" d="M952.181 1603.135a8.887 8.887 0 118.886-8.888 8.9 8.9 0 01-8.886 8.888zm0-13.365a4.478 4.478 0 104.477 4.477 4.482 4.482 0 00-4.477-4.473z" fill="#0055fe"/><path data-name="패스 120650" d="M995.623 1589.452h-14.887a2.204 2.204 0 110-4.409h14.887a2.204 2.204 0 110 4.409z" fill="#e56c16" style="mix-blend-mode:multiply;isolation:isolate"/><path data-name="패스 120651" d="M980.111 1602.725a2.2 2.2 0 01-1.037-4.146c4.717-2.5 6.866-6.6 6.866-9.348l-.005-1.964a2.206 2.206 0 012.19-2.219h.015a2.206 2.206 0 012.2 2.19l.005 1.993c0 4.16-2.848 9.866-9.21 13.241a2.181 2.181 0 01-1.024.253z" fill="#e56c16"/><path data-name="패스 120652" d="M996.277 1602.442a2.186 2.186 0 01-1.031-.258c-6.866-3.64-9.3-9.255-9.3-12.958l-.005-1.964a2.206 2.206 0 012.19-2.219h.015a2.206 2.206 0 012.2 2.19l.005 1.993c0 2.676 2.151 6.515 6.959 9.065a2.2 2.2 0 01-1.034 4.151z" fill="#e56c16"/><path data-name="패스 120653" d="M1010.089 1560.436a3.321 3.321 0 00-6.641 0v1.759a3.321 3.321 0 006.641 0z" fill="#e56c16"/><path data-name="패스 120654" d="M1023.687 1555.343a3.32 3.32 0 00-6.641 0v1.759a3.32 3.32 0 006.641 0z" fill="#e56c16"/></g></g></g></g></svg>