<svg xmlns="http://www.w3.org/2000/svg" width="24" height="24"><path data-name="사각형 25247" fill="none" d="M0 0h24v24H0z"/><g data-name="그룹 35809"><path data-name="패스 117232" d="M2.257 12.145a9.747 9.747 0 009.737 9.6c-.142-8.959-9.596-9.592-9.737-9.6z" fill="#d2dff9"/><path data-name="패스 117233" d="M12.001 2.25A9.75 9.75 0 002.251 12c0 .049.006.1.007.144.14-.008 9.743-.733 9.743-9.894z" fill="#3e80ea"/><path data-name="패스 117234" d="M21.743 12.144c0-.049.008-.1.008-.144a9.751 9.751 0 00-9.749-9.75c-.001 9.145 9.569 9.886 9.741 9.894z" fill="#d2dff9"/><path data-name="패스 117235" d="M21.743 12.145c-.172.01-9.594.653-9.735 9.6a9.746 9.746 0 009.735-9.6z" fill="#3e80ea"/></g></svg>