<svg xmlns="http://www.w3.org/2000/svg" width="24" height="24" viewBox="0 0 24 24">
  <g id="ico_sort_employ" transform="translate(22037 20340)">
    <g id="채용관" transform="translate(-22037 -20340)">
      <rect id="사각형_25247" data-name="사각형 25247" width="24" height="24" fill="none"/>
      <g id="그룹_35809" data-name="그룹 35809" transform="translate(2.25 2.25)">
        <path id="패스_117232" data-name="패스 117232" d="M-1055.87,89.908a9.747,9.747,0,0,0,9.737,9.6C-1046.275,90.549-1055.729,89.916-1055.87,89.908Z" transform="translate(1055.877 -80.013)" fill="#d2dff9"/>
        <path id="패스_117233" data-name="패스 117233" d="M-1046.128,76.714h0a9.75,9.75,0,0,0-9.75,9.75c0,.049.006.1.007.144C-1055.731,86.6-1046.128,85.875-1046.128,76.714Z" transform="translate(1055.879 -76.714)" fill="#3e80ea"/>
        <path id="패스_117234" data-name="패스 117234" d="M-1033.136,86.608c0-.049.008-.1.008-.144a9.751,9.751,0,0,0-9.749-9.75C-1042.878,85.859-1033.308,86.6-1033.136,86.608Z" transform="translate(1052.629 -76.714)" fill="#d2dff9"/>
        <path id="패스_117235" data-name="패스 117235" d="M-1033.134,89.908c-.172.01-9.594.653-9.735,9.6A9.746,9.746,0,0,0-1033.134,89.908Z" transform="translate(1052.627 -80.013)" fill="#3e80ea"/>
      </g>
    </g>
  </g>
</svg>
