<svg xmlns="http://www.w3.org/2000/svg" width="20" height="20"><path fill="none" d="M0 0h20v20H0z"/><g data-name="패스 117135" fill="#ffc43e" stroke-miterlimit="10"><path d="M12.515 15.212h-5.03v-2.084l-.382-.214a6.01 6.01 0 01-3.059-5.235c0-3.306 2.672-5.995 5.956-5.995 3.285 0 5.957 2.69 5.957 5.995a6.01 6.01 0 01-3.059 5.235l-.383.215v2.083z"/><path d="M10 2.434c-2.87 0-5.206 2.353-5.206 5.245A5.259 5.259 0 007.47 12.26l.765.43v1.772h3.53V12.69l.766-.43a5.259 5.259 0 002.676-4.58c0-2.893-2.336-5.246-5.207-5.246m0-1.5c3.704 0 6.707 3.02 6.707 6.745a6.745 6.745 0 01-3.442 5.889v2.394h-6.53v-2.394a6.745 6.745 0 01-3.441-5.889C3.294 3.954 6.297.934 10 .934z" fill="#f7b00f"/></g><path data-name="사각형 25315" fill="#645f5d" d="M6.638 16.665h6.708v2.4H6.638z"/></svg>