<svg xmlns="http://www.w3.org/2000/svg" width="40" height="40"><g data-name="그룹 40184"><circle data-name="타원 2789" cx="20" cy="20" r="20" fill="none"/><g data-name="그룹 35089"><path data-name="패스 117130" d="M32.101 16.395c-.006 2.011 0 4.022-.007 6.032a4.785 4.785 0 01-4.389 4.515c-1.931.042-3.861 0-5.791.021-.461.954-.932 1.9-1.4 2.852-.127.236-.219.543-.523.6-.3-.069-.39-.372-.517-.609-.459-.948-.938-1.886-1.384-2.838-1.932-.034-3.864.02-5.795-.026a4.784 4.784 0 01-4.394-4.52c-.006-2.522-.012-5.043 0-7.563a4.791 4.791 0 014.661-4.462q7.436-.006 14.872 0a4.794 4.794 0 014.454 3.347 8.5 8.5 0 01.213 2.651z" fill="#211d21"/><g data-name="그룹 35088"><path data-name="패스 117131" d="M15.892 14.958a2.139 2.139 0 011.249.383 2.44 2.44 0 01.882 2.037c-.006 1.312 0 2.623 0 3.932q-.72.007-1.438 0c-.022-1.311.027-2.624-.028-3.934a.984.984 0 00-.662-.991c-.012-.477-.006-.952-.003-1.427z" fill="#ededed"/><g data-name="그룹 35085"><path data-name="패스 117132" d="M10.66 21.299c.022-2.066-.024-4.135.026-6.2.48.014.958.009 1.437.014-.017.771.008 1.545-.019 2.316a1.911 1.911 0 012.636.025 2.475 2.475 0 01-.1 3.538 1.806 1.806 0 01-2.525-.121c0 .11.006.329.009.438-.488.004-.977.009-1.464-.01zm1.971-3a.976.976 0 00-.055 1.744.933.933 0 001.344-.85.926.926 0 00-1.289-.894z" fill="#ededed"/></g><g data-name="그룹 35086"><path data-name="패스 117133" d="M20.614 17.032a2.809 2.809 0 012.677.551 2.265 2.265 0 01-.173 3.345 2.662 2.662 0 01-3.968-.9 2.245 2.245 0 011.464-2.996zm.557 1.242a.977.977 0 00-.159 1.75.924.924 0 001.377-.824.92.92 0 00-1.218-.926z" fill="#ededed"/></g><g data-name="그룹 35087"><path data-name="패스 117134" d="M25.624 17.26a1.79 1.79 0 012.364.2v-.4q.724-.007 1.451 0v4.1a2.46 2.46 0 01-.88 1.982 2.852 2.852 0 01-1.88.421v-1.337a1.486 1.486 0 001-.251 1.631 1.631 0 00.325-1.112 1.983 1.983 0 01-2.667.017 2.438 2.438 0 01.287-3.62zm1.133 1a.98.98 0 00-.111 1.729.941.941 0 001.392-.795.935.935 0 00-1.281-.936z" fill="#ededed"/></g></g></g></g></svg>