<svg id="창업창직" xmlns="http://www.w3.org/2000/svg" width="20" height="20" viewBox="0 0 20 20">
  <rect id="area" width="20" height="20" fill="none"/>
  <g id="패스_117135" data-name="패스 117135" transform="translate(-1.16 -0.644)" fill="#ffc43e" stroke-miterlimit="10">
    <path d="M 13.6754207611084 15.85644435882568 L 8.645120620727539 15.85644435882568 L 8.645120620727539 14.21179389953613 L 8.645120620727539 13.77293395996094 L 8.262520790100098 13.55794429779053 C 6.375960826873779 12.49786376953125 5.204000473022461 10.49197387695312 5.204000473022461 8.323054313659668 C 5.204000473022461 5.017374038696289 7.875970840454102 2.328004121780396 11.16027069091797 2.328004121780396 C 14.44457054138184 2.328004121780396 17.11654090881348 5.017374038696289 17.11654090881348 8.323054313659668 C 17.11654090881348 10.49197387695312 15.94458103179932 12.49787425994873 14.05802059173584 13.55794429779053 L 13.6754207611084 13.77293395996094 L 13.6754207611084 14.21179389953613 L 13.6754207611084 15.85644435882568 Z" stroke="none"/>
    <path d="M 11.16027069091797 3.0780029296875 C 8.289520263671875 3.0780029296875 5.954000473022461 5.430923461914062 5.954000473022461 8.323053359985352 C 5.954000473022461 10.22127342224121 6.979360580444336 11.97663307189941 8.62993049621582 12.90411376953125 L 9.395120620727539 13.33408355712891 L 9.395120620727539 15.10644340515137 L 12.9254207611084 15.10644340515137 L 12.9254207611084 13.33408355712891 L 13.69061088562012 12.90411376953125 C 15.3411808013916 11.97663307189941 16.36654090881348 10.22127342224121 16.36654090881348 8.323053359985352 C 16.36654090881348 5.430923461914062 14.03102111816406 3.0780029296875 11.16027069091797 3.0780029296875 M 11.16027069091797 1.5780029296875 C 14.86356067657471 1.5780029296875 17.86654090881348 4.598353385925293 17.86654090881348 8.323053359985352 C 17.86654090881348 10.8553638458252 16.47748184204102 13.05872344970703 14.4254207611084 14.2118034362793 L 14.4254207611084 16.60644340515137 L 7.895120620727539 16.60644340515137 L 7.895120620727539 14.2118034362793 C 5.843070983886719 13.05872344970703 4.454000473022461 10.8553638458252 4.454000473022461 8.323053359985352 C 4.454000473022461 4.598353385925293 7.45698070526123 1.5780029296875 11.16027069091797 1.5780029296875 Z" stroke="none" fill="#f7b00f"/>
  </g>
  <rect id="사각형_25315" data-name="사각형 25315" width="6.708" height="2.4" transform="translate(6.638 16.665)" fill="#645f5d"/>
</svg>
