<svg id="카카오" xmlns="http://www.w3.org/2000/svg" width="60" height="60" viewBox="0 0 60 60">
  <circle id="타원_2787" data-name="타원 2787" cx="30" cy="30" r="30" fill="none"/>
  <g id="그룹_39016" data-name="그룹 39016" transform="translate(-60.493 -175.378)">
    <path id="패스_120223" data-name="패스 120223" d="M69.493,199.274q.733-.16,1.469-.319,0,6.31,0,12.622H69.493Q69.492,205.426,69.493,199.274Z" transform="translate(0)"/>
    <path id="패스_120224" data-name="패스 120224" d="M224.113,199.285c.49-.108.98-.216,1.471-.32v12.621h-1.471Q224.112,205.435,224.113,199.285Z" transform="translate(-137.21 -0.009)"/>
    <path id="패스_120225" data-name="패스 120225" d="M87.11,236.158q1.7-2.223,3.394-4.443.579.414,1.155.832c-.929,1.174-1.877,2.334-2.795,3.516,1.03,1.338,2.17,2.613,3.239,3.93q-.567.441-1.137.879Q89.036,238.516,87.11,236.158Z" transform="translate(-15.634 -29.071)"/>
    <g id="그룹_39016-2" data-name="그룹 39016" transform="translate(77.755 202.712)">
      <path id="패스_120226" data-name="패스 120226" d="M143.445,233.079a5.854,5.854,0,0,1,3.772-.68,2.465,2.465,0,0,1,1.751,1.172,4.468,4.468,0,0,1,.457,2.309q0,2.652,0,5.3c-.365,0-.727.006-1.091,0-.052-.315-.119-.628-.179-.941a4.406,4.406,0,0,1-3.429,1.027,2.149,2.149,0,0,1-1.692-1.41,3.19,3.19,0,0,1,.08-2.219,2.516,2.516,0,0,1,1.718-1.328,13.806,13.806,0,0,1,3.183-.181,3.475,3.475,0,0,0-.3-1.862,1.508,1.508,0,0,0-1.188-.688,5.772,5.772,0,0,0-2.649.539Q143.659,233.6,143.445,233.079Zm1.008,4.881a1.963,1.963,0,0,0-.007,1.6,1.3,1.3,0,0,0,1.32.578,3.983,3.983,0,0,0,2.252-.977c0-.676,0-1.351,0-2.027-.718.012-1.439-.035-2.156.033A1.687,1.687,0,0,0,144.452,237.96Z" transform="translate(-142.873 -232.32)"/>
    </g>
    <path id="패스_120227" data-name="패스 120227" d="M245.164,231.725c.386.275.77.553,1.155.832q-1.407,1.767-2.816,3.532,1.632,1.956,3.261,3.912c-.379.3-.757.592-1.142.881-1.279-1.575-2.569-3.141-3.852-4.714Z" transform="translate(-152.88 -29.08)"/>
    <g id="그룹_39017" data-name="그룹 39017" transform="translate(95.169 202.712)">
      <path id="패스_120228" data-name="패스 120228" d="M298.1,233.081a5.815,5.815,0,0,1,3.81-.674,2.449,2.449,0,0,1,1.728,1.19,4.733,4.733,0,0,1,.445,2.4q0,2.594,0,5.186a5.7,5.7,0,0,1-1.094-.037c-.078-.3-.11-.606-.172-.906a4.453,4.453,0,0,1-3.378,1.04,2.158,2.158,0,0,1-1.713-1.328,3.2,3.2,0,0,1-.007-2.191,2.424,2.424,0,0,1,1.616-1.4,12.277,12.277,0,0,1,3.333-.226,3.5,3.5,0,0,0-.283-1.84,1.524,1.524,0,0,0-1.267-.716,5.843,5.843,0,0,0-2.583.545Q298.319,233.6,298.1,233.081Zm2.488,4.075a1.861,1.861,0,0,0-1.384.645,1.932,1.932,0,0,0-.162,1.627,1.172,1.172,0,0,0,1.176.713,3.888,3.888,0,0,0,2.232-.795c.1-.083.241-.162.217-.314.007-.633,0-1.267,0-1.9C301.979,237.141,301.284,237.105,300.592,237.156Z" transform="translate(-297.532 -232.319)"/>
    </g>
    <g id="그룹_39018" data-name="그룹 39018" transform="translate(103.723 202.727)">
      <path id="패스_120229" data-name="패스 120229" d="M376.448,232.544a4.173,4.173,0,0,1,3.351.667,4.042,4.042,0,0,1,1.4,2.693,7.145,7.145,0,0,1-.26,3.252,3.418,3.418,0,0,1-1.983,2.074,4.8,4.8,0,0,1-2.769.115,3.364,3.364,0,0,1-2.145-1.728,5.977,5.977,0,0,1-.534-2.93,4.978,4.978,0,0,1,.864-2.845A3.394,3.394,0,0,1,376.448,232.544Zm.368,1.157a2.425,2.425,0,0,0-1.708,2.182,5.545,5.545,0,0,0,.405,3.407,2.249,2.249,0,0,0,3.674.142,4.552,4.552,0,0,0,.58-2.646,3.91,3.91,0,0,0-.756-2.474A2.259,2.259,0,0,0,376.816,233.7Z" transform="translate(-373.504 -232.455)"/>
    </g>
  </g>
</svg>
