<svg xmlns="http://www.w3.org/2000/svg" width="40" height="40"><g data-name="그룹 40183"><circle data-name="타원 2787" cx="20" cy="20" r="20" fill="none"/><path data-name="패스 452" d="M30.526 14.712a2.75 2.75 0 00-1.943-1.943c-1.713-.459-8.584-.459-8.584-.459s-6.87 0-8.584.459a2.75 2.75 0 00-1.945 1.943A28.564 28.564 0 009.011 20a28.563 28.563 0 00.459 5.288 2.75 2.75 0 001.943 1.943c1.713.459 8.584.459 8.584.459s6.871 0 8.584-.459a2.75 2.75 0 001.943-1.943A28.563 28.563 0 0030.983 20a28.6 28.6 0 00-.457-5.288zm-12.723 8.584v-6.591l5.708 3.3z" fill="#211d21"/></g></svg>