<svg xmlns="http://www.w3.org/2000/svg" width="40" height="40" viewBox="0 0 40 40">
  <g id="그룹_40184" data-name="그룹 40184" transform="translate(13942 21428)">
    <g id="blog" transform="translate(-13942 -21428)">
      <circle id="타원_2789" data-name="타원 2789" cx="20" cy="20" r="20" fill="none"/>
      <g id="그룹_35089" data-name="그룹 35089" transform="translate(-514.169 231.918)">
        <path id="패스_117130" data-name="패스 117130" d="M546.27-215.523c-.006,2.011,0,4.022-.007,6.032a4.785,4.785,0,0,1-4.389,4.515c-1.931.042-3.861,0-5.791.021-.461.954-.932,1.9-1.4,2.852-.127.236-.219.543-.523.6-.3-.069-.39-.372-.517-.609-.459-.948-.938-1.886-1.384-2.838-1.932-.034-3.864.02-5.795-.026a4.784,4.784,0,0,1-4.394-4.52c-.006-2.522-.012-5.043,0-7.563a4.791,4.791,0,0,1,4.661-4.462q7.436-.006,14.872,0a4.794,4.794,0,0,1,4.454,3.347A8.5,8.5,0,0,1,546.27-215.523Z" transform="translate(0 0)" fill="#211d21"/>
        <g id="그룹_35088" data-name="그룹 35088" transform="translate(524.829 -216.962)">
          <path id="패스_117131" data-name="패스 117131" d="M541.379-210.5a2.139,2.139,0,0,1,1.249.383,2.44,2.44,0,0,1,.882,2.037c-.006,1.312,0,2.623,0,3.932q-.72.007-1.438,0c-.022-1.311.027-2.624-.028-3.934a.984.984,0,0,0-.662-.991C541.37-209.55,541.376-210.025,541.379-210.5Z" transform="translate(-536.147 210.502)" fill="#ededed"/>
          <g id="그룹_35085" data-name="그룹 35085" transform="translate(0 0.142)">
            <path id="패스_117132" data-name="패스 117132" d="M528.744-203.959c.022-2.066-.024-4.135.026-6.2.48.014.958.009,1.437.014-.017.771.008,1.545-.019,2.316a1.911,1.911,0,0,1,2.636.025,2.475,2.475,0,0,1-.1,3.538,1.806,1.806,0,0,1-2.525-.121c0,.11.006.329.009.438C529.72-203.945,529.231-203.94,528.744-203.959Zm1.971-3a.976.976,0,0,0-.055,1.744.933.933,0,0,0,1.344-.85A.926.926,0,0,0,530.715-206.959Z" transform="translate(-528.744 210.16)" fill="#ededed"/>
          </g>
          <g id="그룹_35086" data-name="그룹 35086" transform="translate(8.325 1.956)">
            <path id="패스_117133" data-name="패스 117133" d="M550.488-205.657a2.809,2.809,0,0,1,2.677.551,2.265,2.265,0,0,1-.173,3.345,2.662,2.662,0,0,1-3.968-.9A2.245,2.245,0,0,1,550.488-205.657Zm.557,1.242a.977.977,0,0,0-.159,1.75.924.924,0,0,0,1.377-.824A.92.92,0,0,0,551.045-204.415Z" transform="translate(-548.859 205.777)" fill="#ededed"/>
          </g>
          <g id="그룹_35087" data-name="그룹 35087" transform="translate(14.004 1.953)">
            <path id="패스_117134" data-name="패스 117134" d="M563.539-205.432a1.79,1.79,0,0,1,2.364.2c0-.1,0-.3,0-.4q.724-.007,1.451,0c0,1.366,0,2.731,0,4.1a2.46,2.46,0,0,1-.88,1.982,2.852,2.852,0,0,1-1.88.421c0-.446,0-.891,0-1.337a1.486,1.486,0,0,0,1-.251,1.631,1.631,0,0,0,.325-1.112,1.983,1.983,0,0,1-2.667.017A2.438,2.438,0,0,1,563.539-205.432Zm1.133,1a.98.98,0,0,0-.111,1.729.941.941,0,0,0,1.392-.795A.935.935,0,0,0,564.672-204.434Z" transform="translate(-562.579 205.783)" fill="#ededed"/>
          </g>
        </g>
      </g>
    </g>
  </g>
</svg>
