<svg xmlns="http://www.w3.org/2000/svg" width="60" height="60"><circle data-name="타원 2787" cx="30" cy="30" r="30" fill="none"/><g data-name="그룹 39016"><path data-name="패스 120223" d="M9 23.896l1.469-.319v12.622H9V23.896z"/><path data-name="패스 120224" d="M26.41 23.898c.49-.108.98-.216 1.471-.32v12.621H26.41V23.898z"/><path data-name="패스 120225" d="M10.983 31.709q1.7-2.223 3.394-4.443.579.414 1.155.832c-.929 1.174-1.877 2.334-2.795 3.516 1.03 1.338 2.17 2.613 3.239 3.93q-.567.441-1.137.879-1.93-2.356-3.856-4.714z"/><g data-name="그룹 39016"><path data-name="패스 120226" d="M17.834 28.093a5.854 5.854 0 013.772-.68 2.465 2.465 0 011.751 1.172 4.468 4.468 0 01.457 2.309v5.3c-.365 0-.727.006-1.091 0-.052-.315-.119-.628-.179-.941a4.406 4.406 0 01-3.429 1.027 2.149 2.149 0 01-1.692-1.41 3.19 3.19 0 01.08-2.219 2.516 2.516 0 011.718-1.328 13.806 13.806 0 013.183-.181 3.475 3.475 0 00-.3-1.862 1.508 1.508 0 00-1.188-.688 5.772 5.772 0 00-2.649.539q-.219-.517-.433-1.038zm1.008 4.881a1.963 1.963 0 00-.007 1.6 1.3 1.3 0 001.32.578 3.983 3.983 0 002.252-.977v-2.027c-.718.012-1.439-.035-2.156.033a1.687 1.687 0 00-1.41.793z"/></g><path data-name="패스 120227" d="M31.791 27.267c.386.275.77.553 1.155.832q-1.407 1.767-2.816 3.532 1.632 1.956 3.261 3.912c-.379.3-.757.592-1.142.881-1.279-1.575-2.569-3.141-3.852-4.714z"/><g data-name="그룹 39017"><path data-name="패스 120228" d="M35.244 28.096a5.815 5.815 0 013.81-.674 2.449 2.449 0 011.728 1.19 4.733 4.733 0 01.445 2.4v5.186a5.7 5.7 0 01-1.094-.037c-.078-.3-.11-.606-.172-.906a4.453 4.453 0 01-3.378 1.04 2.158 2.158 0 01-1.713-1.328 3.2 3.2 0 01-.007-2.191 2.424 2.424 0 011.616-1.4 12.277 12.277 0 013.333-.226 3.5 3.5 0 00-.283-1.84 1.524 1.524 0 00-1.267-.716 5.843 5.843 0 00-2.583.545q-.216-.524-.435-1.043zm2.488 4.075a1.861 1.861 0 00-1.384.645 1.932 1.932 0 00-.162 1.627 1.172 1.172 0 001.176.713 3.888 3.888 0 002.232-.795c.1-.083.241-.162.217-.314.007-.633 0-1.267 0-1.9-.688.009-1.383-.027-2.075.024z"/></g><g data-name="그룹 39018"><path data-name="패스 120229" d="M46.174 27.438a4.173 4.173 0 013.351.667 4.042 4.042 0 011.4 2.693 7.145 7.145 0 01-.26 3.252 3.418 3.418 0 01-1.983 2.074 4.8 4.8 0 01-2.769.115 3.364 3.364 0 01-2.145-1.728 5.977 5.977 0 01-.534-2.93 4.978 4.978 0 01.864-2.845 3.394 3.394 0 012.076-1.298zm.368 1.157a2.425 2.425 0 00-1.708 2.182 5.545 5.545 0 00.405 3.407 2.249 2.249 0 003.674.142 4.552 4.552 0 00.58-2.646 3.91 3.91 0 00-.756-2.474 2.259 2.259 0 00-2.195-.612z"/></g></g></svg>