<svg xmlns="http://www.w3.org/2000/svg" width="40" height="40" viewBox="0 0 40 40">
  <g id="그룹_40183" data-name="그룹 40183" transform="translate(13994 21428)">
    <g id="youtube" transform="translate(-13994 -21428)">
      <circle id="타원_2787" data-name="타원 2787" cx="20" cy="20" r="20" fill="none"/>
      <path id="패스_452" data-name="패스 452" d="M368.056-215.8a2.75,2.75,0,0,0-1.943-1.943c-1.713-.459-8.584-.459-8.584-.459s-6.87,0-8.584.459A2.75,2.75,0,0,0,347-215.8a28.564,28.564,0,0,0-.459,5.288,28.563,28.563,0,0,0,.459,5.288,2.75,2.75,0,0,0,1.943,1.943c1.713.459,8.584.459,8.584.459s6.871,0,8.584-.459a2.75,2.75,0,0,0,1.943-1.943,28.563,28.563,0,0,0,.459-5.288A28.6,28.6,0,0,0,368.056-215.8Zm-12.723,8.584v-6.591l5.708,3.3Z" transform="translate(-337.53 230.512)" fill="#211d21"/>
    </g>
  </g>
</svg>
